<?xml version="1.0" encoding="utf-8"?>
<!-- Generator: Adobe Illustrator 27.0.1, SVG Export Plug-In . SVG Version: 6.00 Build 0)  -->
<svg version="1.1" id="Layer_1" xmlns="http://www.w3.org/2000/svg" xmlns:xlink="http://www.w3.org/1999/xlink" x="0px" y="0px"
	 viewBox="0 0 100 100" style="enable-background:new 0 0 100 100;" xml:space="preserve">
<style type="text/css">
	.st0{fill:#33E4C2;}
	.st1{fill:#00DDB3;}
	.st2{fill:#007DDF;}
	.st3{fill:#3397E6;}
	.st4{fill:#D8ECFE;}
	.st5{fill:#EAF6FF;}
	.st6{fill:#C4E2FF;}
	.st7{fill:#82AEE3;}
	.st8{fill:#FEA613;}
	.st9{fill:#FDB441;}
</style>
<g>
	<g>
		<path class="st0" d="M63.3,43.7H12.1c-1.7,0-3-1.4-3-3V3c0-1.7,1.4-3,3-3h51.2c1.7,0,3,1.4,3,3v37.7C66.4,42.4,65,43.7,63.3,43.7z
			"/>
		<path class="st1" d="M68.1,43.7H16.3c-1.7,0-3-1.4-3-3V3c0-1.7,1.4-3,3-3H68c1.7,0,3,1.4,3,3v37.7C71.1,42.4,69.7,43.7,68.1,43.7z
			"/>
	</g>
	<g>
		<path class="st2" d="M76.7,43.7h-56c-1.7,0-3-1.4-3-3V3c0-1.7,1.4-3,3-3h55.9c1.7,0,3,1.4,3,3v37.7C79.7,42.4,78.3,43.7,76.7,43.7
			z"/>
		<path class="st3" d="M71.9,43.7H20.7c-1.7,0-3-1.4-3-3V3c0-1.7,1.4-3,3-3h51.2c1.7,0,3,1.4,3,3v37.7C75,42.4,73.6,43.7,71.9,43.7z
			"/>
	</g>
	<path class="st4" d="M88.2,51.7H32.3c-1.7,0-3-1.4-3-3V11c0-1.7,1.4-3,3-3h55.9c1.7,0,3,1.4,3,3v37.7
		C91.3,50.3,89.9,51.7,88.2,51.7z"/>
	<path class="st5" d="M83.5,51.7H32.3c-1.7,0-3-1.4-3-3V11c0-1.7,1.4-3,3-3h51.2c1.7,0,3,1.4,3,3v37.7
		C86.5,50.3,85.2,51.7,83.5,51.7z"/>
	<path class="st6" d="M82.3,52.6H38.2c-0.8,0-1.5-0.7-1.5-1.5V17c0-0.8,0.7-1.5,1.5-1.5h44.1c0.8,0,1.5,0.7,1.5,1.5v34
		C83.9,51.9,83.2,52.6,82.3,52.6z"/>
	<path class="st7" d="M84.6,54.1L73,34c-1.2-2.1-4.3-2.1-5.6,0l-5.3,9.3L53.9,29c-1.2-2.1-4.3-2.1-5.6,0L36.7,49.1h22l-2.9,5H84.6z"
		/>
	<path class="st8" d="M38.6,48.1H3.7v-7.2c0-2.2,1.8-4,4-4h22.9c1.2,0,2.3,0.7,2.8,1.7L38.6,48.1z"/>
	<path class="st8" d="M92.3,100H7.7c-2.2,0-4-1.8-4-4V48.1h88.6c2.2,0,4,1.8,4,4V96C96.3,98.2,94.5,100,92.3,100z"/>
	<path class="st9" d="M87.3,100H7.7c-2.2,0-4-1.8-4-4V48.1h83.5c2.2,0,4,1.8,4,4V96C91.3,98.2,89.5,100,87.3,100z"/>
	<path class="st9" d="M24.4,36.9H7.7c-2.2,0-4,1.8-4,4v7.2h28.6l-5.1-9.5C26.7,37.5,25.6,36.9,24.4,36.9z"/>
	<circle class="st9" cx="63.6" cy="24.8" r="3.8"/>
</g>
</svg>
