<?xml version="1.0" encoding="utf-8"?>
<!-- Generator: Adobe Illustrator 27.0.1, SVG Export Plug-In . SVG Version: 6.00 Build 0)  -->
<svg version="1.1" id="Layer_1" xmlns="http://www.w3.org/2000/svg" xmlns:xlink="http://www.w3.org/1999/xlink" x="0px" y="0px"
	 viewBox="0 0 100 100" style="enable-background:new 0 0 100 100;" xml:space="preserve">
<style type="text/css">
	.st0{fill:#DFEAEF;}
	.st1{fill:#007DDF;}
	.st2{fill:#B4D0D5;}
	.st3{fill:#454045;}
	.st4{fill:#665E66;}
	.st5{fill:none;stroke:#EAB14D;stroke-width:2.5;stroke-linecap:round;stroke-miterlimit:10;}
	.st6{fill:#F4DD45;}
	.st7{fill:none;stroke:#FFFFFF;stroke-width:2.5;stroke-linecap:round;stroke-miterlimit:10;}
</style>
<path class="st0" d="M95.8,88.2H4.2V32.6c0-3.2,2.6-5.8,5.8-5.8h80.1c3.2,0,5.8,2.6,5.8,5.8V88.2z"/>
<rect x="12.2" y="34.2" class="st1" width="75.5" height="47.3"/>
<rect x="4.2" y="84.4" class="st2" width="91.7" height="3.9"/>
<path class="st2" d="M92,100H8c-4.4,0-8-3.6-8-8l0-3.7h100V92C100,96.4,96.4,100,92,100z"/>
<path class="st0" d="M92,100H16.5c-4.4,0-8-3.6-8-8v-3.7H100V92C100,96.4,96.4,100,92,100z"/>
<path class="st3" d="M70.3,25.6v17.3c0,6.1-5,11.1-11.1,11.1H40.7c-6.1,0-11.1-5-11.1-11.1V25.6H70.3z"/>
<path class="st4" d="M59.4,54h-7.5c-8.5,0-15.3-6.9-15.3-15.3V25.6h33.8v17.5C70.3,49.1,65.4,54,59.4,54z"/>
<path class="st2" d="M56.1,93.8H43.9c-2.7,0-4.9-2.2-4.9-4.9v-0.7h22.1v0.7C61.1,91.6,58.9,93.8,56.1,93.8z"/>
<path class="st4" d="M47.6,42.7L18.3,25.8c-3.2-1.8-3.2-6.4,0-8.2L47.6,0.6c1.5-0.8,3.3-0.8,4.7,0l29.3,16.9c3.2,1.8,3.2,6.4,0,8.2
	L52.4,42.7C50.9,43.5,49.1,43.5,47.6,42.7z"/>
<path class="st3" d="M70.3,32.3v4l-18,10.4c-1.5,0.8-3.3,0.8-4.7,0l-18-10.4v-4l18,10.4c1.5,0.8,3.3,0.8,4.7,0L70.3,32.3z"/>
<polyline class="st5" points="50,21.7 63,36.5 63,60.7 "/>
<path class="st6" d="M63.8,70h-1.6c-0.2,0-0.3,0-0.5,0c-2.6-0.3-4.1-3-3.1-5.3l1.9-4.2c0.4-0.9,1.4-1.5,2.4-1.5h0
	c1.1,0,2,0.6,2.4,1.5l1.9,4.2c1,2.3-0.5,5-3.1,5.3C64.1,70,63.9,70,63.8,70z"/>
<line class="st7" x1="18.6" y1="68.7" x2="36.6" y2="68.7"/>
<line class="st7" x1="18.6" y1="74.5" x2="44.1" y2="74.5"/>
</svg>
