<svg xmlns="http://www.w3.org/2000/svg" xmlns:xlink="http://www.w3.org/1999/xlink" width="68" height="68" viewBox="0 0 68 68"><defs><clipPath id="b"><rect width="68" height="68"/></clipPath></defs><g id="a" clip-path="url(#b)"><g transform="translate(-3817 -1605.493)"><path d="M99.2,130.748a2,2,0,1,1-2-2,2,2,0,0,1,2,2" transform="translate(3722.797 1477.745)" fill="#fff"/><path d="M132.977,130.748a2,2,0,1,1-2-2,2,2,0,0,1,2,2" transform="translate(3710.005 1477.745)" fill="#fff"/><path d="M166.75,130.748a2,2,0,1,1-2-2,2,2,0,0,1,2,2" transform="translate(3697.213 1477.745)" fill="#fff"/><path d="M200.523,130.748a2,2,0,1,1-2-2,2,2,0,0,1,2,2" transform="translate(3684.421 1477.745)" fill="#fff"/><path d="M99.2,164.227a2,2,0,1,1-2-2,2,2,0,0,1,2,2" transform="translate(3722.797 1465.064)" fill="#fff"/><path d="M132.977,164.227a2,2,0,1,1-2-2,2,2,0,0,1,2,2" transform="translate(3710.005 1465.064)" fill="#fff"/><path d="M166.75,164.227a2,2,0,1,1-2-2,2,2,0,0,1,2,2" transform="translate(3697.213 1465.064)" fill="#fff"/><path d="M200.523,164.227a2,2,0,1,1-2-2,2,2,0,0,1,2,2" transform="translate(3684.421 1465.064)" fill="#fff"/><path d="M99.2,197.707a2,2,0,1,1-2-2,2,2,0,0,1,2,2" transform="translate(3722.797 1452.383)" fill="#fff"/><path d="M132.977,197.707a2,2,0,1,1-2-2,2,2,0,0,1,2,2" transform="translate(3710.005 1452.383)" fill="#fff"/><path d="M166.75,197.707a2,2,0,1,1-2-2,2,2,0,0,1,2,2" transform="translate(3697.213 1452.383)" fill="#fff"/><path d="M200.523,197.707a2,2,0,1,1-2-2,2,2,0,0,1,2,2" transform="translate(3684.421 1452.383)" fill="#fff"/><path d="M99.2,231.186a2,2,0,1,1-2-2,2,2,0,0,1,2,2" transform="translate(3722.797 1439.703)" fill="#fff"/><path d="M132.977,231.186a2,2,0,1,1-2-2,2,2,0,0,1,2,2" transform="translate(3710.005 1439.703)" fill="#fff"/><path d="M166.75,231.186a2,2,0,1,1-2-2,2,2,0,0,1,2,2" transform="translate(3697.213 1439.703)" fill="#fff"/><path d="M200.523,231.186a2,2,0,1,1-2-2,2,2,0,0,1,2,2" transform="translate(3684.421 1439.703)" fill="#fff"/></g></g></svg>