<svg xmlns="http://www.w3.org/2000/svg" xmlns:xlink="http://www.w3.org/1999/xlink" width="120" height="90" viewBox="0 0 120 90"><defs><clipPath id="b"><rect width="120" height="90"/></clipPath></defs><g id="a" clip-path="url(#b)"><g transform="translate(-8.69 4)"><path d="M81.41,0h8.21V82.09H81.41Z" fill="#007ddf"/><path d="M105.34,76.99a61.416,61.416,0,0,1,0-71.89l6.75,4.67a53.253,53.253,0,0,0,0,62.56L105.34,77Z" fill="#007ddf"/><path d="M121.44,60.92a20.528,20.528,0,0,1,0-39.75l3.29,7.7a12.313,12.313,0,0,0,0,24.35l-3.29,7.7Z" fill="#007ddf"/><rect width="6.16" height="24.63" transform="translate(12.69 20.52)"/><path d="M21.79,32.83A12.313,12.313,0,0,1,33.75,20.17h.63c5.91,0,11.26,3.94,11.86,9.18H39.66a5.3,5.3,0,0,0-5.28-3.38,6.872,6.872,0,0,0,0,13.72,5.328,5.328,0,0,0,5.28-3.73h6.65c-.88,5.63-5.8,9.53-11.93,9.53a12.32,12.32,0,0,1-12.6-12.03v-.63"/><path d="M48.68,32.83A12.313,12.313,0,0,1,60.64,20.17h.63c5.91,0,11.26,3.94,11.86,9.18H66.55a5.3,5.3,0,0,0-5.28-3.38,6.872,6.872,0,0,0,0,13.72,5.328,5.328,0,0,0,5.28-3.73H73.2c-.88,5.63-5.8,9.53-11.93,9.53a12.32,12.32,0,0,1-12.6-12.03v-.63"/><path d="M43.45,61.59V49.86h2.19V61.59Z"/><path d="M49.47,53.33l.15.96a2.438,2.438,0,0,1,2.33-1.17,3.128,3.128,0,0,1,2.13.79l-.92,1.78a2.043,2.043,0,0,0-1.47-.54,1.905,1.905,0,0,0-2.06,2.09V61.6H47.59V53.34h1.89Z"/><path d="M61.4,53.33h1.96v8.26H61.43l-.1-1.21a3.154,3.154,0,0,1-2.68,1.46c-2.45.02-4.26-1.49-4.26-4.39a3.992,3.992,0,0,1,4.31-4.32,3.029,3.029,0,0,1,2.63,1.34l.07-1.14Zm-4.96,4.12a2.362,2.362,0,0,0,2.45,2.51c3.22,0,3.22-5.01,0-5.01a2.354,2.354,0,0,0-2.45,2.5Z"/><path d="M71.16,61.59V57.27a1.968,1.968,0,0,0-1.99-2.21,2.148,2.148,0,0,0-2.11,2.31v4.22H65.03V53.31h1.83l.13,1.12a3.739,3.739,0,0,1,2.71-1.24c1.94,0,3.5,1.46,3.5,4.05v4.34H71.16Z"/></g></g></svg>